<svg width="16" height="15" viewBox="0 0 16 15" fill="none" xmlns="http://www.w3.org/2000/svg">
<path d="M1.37605 1.40396C1.37628 1.05689 1.52063 0.724108 1.77741 0.478697C2.03418 0.233286 2.38238 0.095321 2.74551 0.0951059L13.727 0.0951064C14.0902 0.0953224 14.4384 0.233288 14.6952 0.478698C14.9519 0.724109 15.0963 1.05689 15.0965 1.40396V11.8995C15.0838 12.2386 14.934 12.5598 14.6786 12.7956C14.4232 13.0314 14.0821 13.1634 13.727 13.1639C13.372 13.1634 13.0309 13.0314 12.7755 12.7956C12.5201 12.5598 12.3703 12.2386 12.3576 11.8995L12.3576 4.56496L2.74551 13.7516C2.48853 13.9972 2.13999 14.1352 1.77656 14.1352C1.41312 14.1352 1.06458 13.9972 0.807595 13.7516C0.550612 13.506 0.40624 13.1729 0.406241 12.8255C0.406242 12.4782 0.550612 12.1451 0.807595 11.8995L10.4197 2.71281L2.74551 2.71281C2.38238 2.71259 2.03418 2.57463 1.77741 2.32922C1.52063 2.08381 1.37628 1.75102 1.37605 1.40396Z" fill="white"/>
</svg>
